<svg width="100" height="20" viewBox="0 0 100 20" fill="none" xmlns="http://www.w3.org/2000/svg">
  <path d="M0 3.33333H6.66667L10 10L13.3333 3.33333H20V16.6667H13.3333V10L10 16.6667L6.66667 10V16.6667H0V3.33333Z" fill="white"/>
  <path d="M23.3333 3.33333H43.3333V6.66667H36.6667V16.6667H30V6.66667H23.3333V3.33333Z" fill="white"/>
  <path d="M46.6667 3.33333H66.6667V6.66667H60V10H66.6667V13.3333H60V16.6667H46.6667V3.33333Z" fill="white"/>
  <path d="M70 3.33333H90V6.66667H83.3333V16.6667H76.6667V6.66667H70V3.33333Z" fill="white"/>
  <path d="M93.3333 3.33333H100V16.6667H93.3333V3.33333Z" fill="white"/>
  <path d="M46.6667 18.6667H100V20H46.6667V18.6667Z" fill="white"/>
  <path d="M46.6667 18.6667H53.3333V20H46.6667V18.6667Z" fill="white"/>
  <path d="M56.6667 18.6667H63.3333V20H56.6667V18.6667Z" fill="white"/>
  <path d="M66.6667 18.6667H73.3333V20H66.6667V18.6667Z" fill="white"/>
  <path d="M76.6667 18.6667H83.3333V20H76.6667V18.6667Z" fill="white"/>
  <path d="M86.6667 18.6667H93.3333V20H86.6667V18.6667Z" fill="white"/>
  <path d="M96.6667 18.6667H100V20H96.6667V18.6667Z" fill="white"/>
</svg>

